# xmcd
#
# Track frame offsets:
#	150
#	16812
#	35975
#	52400
#	70700
#	88862
#	110025
#	123962
#	144100
#	164750
#	187987
#	207875
#	226225
#	247362
#	263012
#	284612
#	305950
#	315162
#
# Disc length: 4280 seconds
# Revision: 0
# Processed by: cddbd v1.5.2PL0 Copyright (c) Steve Scherf et al.
# Submitted via: dBpowerAMP V12.0
#
DISCID=1110b612
DTITLE=Various Artist - 下世紀再嬉戲 Disc 1
DYEAR=1999
DGENRE=Rock/Pop
TTITLE0=黃耀明 - 錯蕩 (Beach Boys)
TTITLE1=黃耀明 - 唱機
TTITLE2=黃耀明 - 來 (The 2nd Coming)
TTITLE3=黃耀明 - 風月寶鑑
TTITLE4=黃耀明 - 如果你愛我
TTITLE5=黃耀明 - 甜美生活
TTITLE6=黃耀明 - 每日一禁果 (Mark Lui Remix)
TTITLE7=黃耀明 - 小王子
TTITLE8=黃耀明,  關淑怡 - 萬福瑪利亞
TTITLE9=黃耀明 - 一千場戀愛
TTITLE10=黃耀明 - 春光乍洩
TTITLE11=黃耀明 - 禁色
TTITLE12=黃耀明 - 忘記他是她
TTITLE13=黃耀明 - 如果你愛我 (Remix)
TTITLE14=黃耀明 - 天國近了 (你們當遊戲)
TTITLE15=黃耀明 - 我要環遊世界
TTITLE16=黃耀明 - 下世紀再嬉戲
TTITLE17=黃耀明 - 錯蕩 (Danny Boy)
EXTD=
EXTT0=
EXTT1=
EXTT2=
EXTT3=
EXTT4=
EXTT5=
EXTT6=
EXTT7=
EXTT8=
EXTT9=
EXTT10=
EXTT11=
EXTT12=
EXTT13=
EXTT14=
EXTT15=
EXTT16=
EXTT17=
PLAYORDER=
